<?xml version="1.0" encoding="utf-8"?><svg version="1.1" id="Layer_1" xmlns="http://www.w3.org/2000/svg" xmlns:xlink="http://www.w3.org/1999/xlink" x="0px" y="0px" viewBox="0 0 122.87 122.88" style="enable-background:new 0 0 122.87 122.88" xml:space="preserve"><style type="text/css">.st0{fill:#222222;}</style><g><path class="st0" d="M56.6,0.03c-0.29,0.03-1.21,0.14-2.04,0.21C42.74,1.48,31.11,6.48,21.62,14.43c-1.75,1.45-5.74,5.44-7.19,7.19 C6.57,31.01,1.98,41.54,0.28,54.01c-0.38,2.77-0.38,12.1,0,14.87c1.69,12.47,6.29,23,14.14,32.38c1.45,1.75,5.44,5.74,7.19,7.19 C31,116.31,41.54,120.9,54,122.6c2.77,0.38,12.1,0.38,14.87,0c12.47-1.69,23-6.29,32.38-14.14c1.75-1.45,5.74-5.44,7.19-7.19 c7.86-9.38,12.45-19.92,14.14-32.38c0.38-2.77,0.38-12.1,0-14.87c-1.69-12.47-6.29-23-14.14-32.38c-1.45-1.75-5.44-5.74-7.19-7.19 C91.9,6.6,81.26,1.95,68.96,0.3c-1.33-0.18-3.26-0.26-6.85-0.29C59.38-0.01,56.89,0,56.6,0.03L56.6,0.03z M57.36,6.56 c0,1.77,0.12,5.61,0.29,9.25c0.09,1.78,0.2,4.34,0.24,5.67c0.17,4.71,0.67,17.09,0.74,18.19l0.08,1.1l-0.68-0.08 c-0.38-0.03-0.73-0.12-0.79-0.17c-0.05-0.06-0.15-1.1-0.21-2.33c-0.27-5.38-1.16-26.25-1.25-29.3l-0.09-3.35l0.42-0.06 c0.23-0.03,0.6-0.08,0.85-0.09l0.41-0.01L57.36,6.56L57.36,6.56L57.36,6.56z M71.82,6.2c0.02,0.02,0.06,4.58,0.11,10.14 c0.06,5.58,0.14,10.58,0.18,11.12c0.05,0.56,0.03,1.04-0.05,1.07c-0.06,0.05-0.44,0.05-0.82,0l-0.7-0.06l-0.11-4.4 c-0.06-2.43-0.14-5.12-0.17-6c-0.12-2.67-0.23-11.76-0.14-11.98C70.2,5.93,70.37,5.91,71,6.02C71.44,6.11,71.8,6.18,71.82,6.2 L71.82,6.2L71.82,6.2z M36.87,11.26c0.09,0.14,0.8,8.46,1.68,19.36c0.29,3.7,0.57,7.09,0.62,7.51c0.08,0.77,0.06,0.8-0.42,1.1 c-0.27,0.17-0.54,0.3-0.6,0.3c-0.05,0-0.14-0.39-0.18-0.88c-0.21-1.96-1.03-11.45-1.6-18.31c-0.33-4.03-0.63-7.65-0.68-8.04 c-0.08-0.67-0.06-0.73,0.33-0.94C36.49,11.11,36.76,11.06,36.87,11.26L36.87,11.26L36.87,11.26z M78.47,14.3 c0.42,0.15,0.47,0.23,0.56,1.09c0.15,1.51,0.11,8.73-0.06,8.73c-0.44,0-1.35-0.51-1.42-0.8c-0.05-0.18-0.09-2.33-0.09-4.76 C77.45,13.65,77.39,13.93,78.47,14.3L78.47,14.3z M50.56,15.01c0,0.41,0.11,2.66,0.23,5.03c0.12,2.37,0.26,5.38,0.32,6.68 c0.11,2.63,0.14,2.54-0.88,2.6c-0.5,0.02-0.5,0.02-0.53-0.74c-0.03-0.42-0.11-1.74-0.2-2.95c-0.08-1.21-0.26-3.82-0.38-5.82 c-0.12-1.99-0.27-3.97-0.32-4.4c-0.09-0.76-0.08-0.79,0.33-0.94c0.24-0.09,0.67-0.17,0.94-0.17C50.56,14.3,50.56,14.3,50.56,15.01 L50.56,15.01L50.56,15.01z M92.47,17.08l0.51,0.21l0.11,2.02c0.05,1.1,0.08,3.49,0.05,5.29l-0.05,3.29l-0.63-0.32l-0.63-0.3 l-0.05-5.02c-0.03-2.77-0.02-5.11,0.02-5.21C91.85,16.82,91.85,16.82,92.47,17.08L92.47,17.08L92.47,17.08z M64.88,19.06 c0.09,0.09,0.3,7.42,0.32,11.14l0.02,2.24l-0.71-0.11c-0.41-0.05-0.74-0.09-0.76-0.11c-0.05-0.03-0.5-11.23-0.5-12.32v-1.12 l0.77,0.09C64.46,18.94,64.84,19.01,64.88,19.06L64.88,19.06L64.88,19.06z M99.68,20.13c0.18,0.21,0.21,3.52,0.26,21.77 c0.05,20.96,0.05,21.5-0.23,21.5c-0.17,0-0.39-0.09-0.53-0.2c-0.23-0.17-0.26-1.99-0.33-19.9c-0.06-10.85-0.14-20.7-0.18-21.9 l-0.09-2.18l0.44,0.32C99.27,19.74,99.56,19.99,99.68,20.13L99.68,20.13L99.68,20.13z M86.13,23.23c0.08,0.06,0.15,0.92,0.17,1.9 c0.08,3.34,0.09,23.81,0.02,23.88c-0.03,0.03-0.3-0.05-0.6-0.17l-0.54-0.23l0-25.7L85.58,23C85.81,23.06,86.05,23.15,86.13,23.23 L86.13,23.23L86.13,23.23z M44.42,24.07c0.05,0.41,0.12,1.33,0.17,2.09c0.05,0.74,0.15,2.43,0.24,3.75 c0.18,2.66,0.15,2.83-0.71,2.83c-0.45,0-0.51-0.05-0.57-0.5c-0.15-0.89-0.68-8.33-0.6-8.45c0.08-0.11,0.86-0.38,1.22-0.41 C44.26,23.36,44.38,23.68,44.42,24.07L44.42,24.07z M19.43,27.93c0.17,1.6,0.5,4.96,0.74,7.45c0.26,2.49,0.47,4.61,0.47,4.7 c0,0.18-1.16,0.76-1.28,0.63c-0.08-0.08-1.59-13.45-1.59-14.05c0-0.36,1.16-1.89,1.31-1.72C19.13,24.96,19.28,26.31,19.43,27.93 L19.43,27.93z M78.68,29.51l0.44,0.26l0.02,3.26c0.01,1.78,0.05,3.78,0.05,4.43c0.03,1.36-0.14,1.59-0.95,1.3l-0.47-0.17v-1.3 c0-0.73-0.05-2.83-0.11-4.68l-0.09-3.35h0.35C78.09,29.26,78.44,29.38,78.68,29.51L78.68,29.51L78.68,29.51z M26.06,35.38 c0.27,2.9,0.71,7.8,1,10.88l0.51,5.59l-0.59,0.59l-0.57,0.59l-0.11-1.19c-0.06-0.67-0.36-3.75-0.68-6.86 c-0.32-3.11-0.77-7.63-1-10.03l-0.42-4.35l0.59-0.54c0.53-0.5,0.59-0.51,0.7-0.24C25.55,29.95,25.81,32.46,26.06,35.38L26.06,35.38 L26.06,35.38z M14.74,37.2c0.33,2.98,1.21,10.89,1.96,17.59c0.76,6.69,1.47,13.15,1.6,14.36c0.12,1.21,0.33,3.04,0.45,4.08 c0.21,1.77,0.21,1.89-0.03,2.07c-0.36,0.27-0.51,0.24-0.51-0.08c0-0.14-0.14-1.28-0.3-2.52c-0.27-2.07-0.73-5.58-1.74-13.45 c-0.21-1.59-0.62-4.74-0.91-7.03c-0.3-2.28-0.74-5.68-0.98-7.56c-0.24-1.87-0.65-5.08-0.91-7.15c-0.27-2.05-0.44-3.88-0.39-4.08 c0.11-0.41,1-1.83,1.09-1.74C14.11,31.75,14.41,34.21,14.74,37.2L14.74,37.2L14.74,37.2z M10.12,43.72 c0.23,1.81,0.65,5.12,0.94,7.37c0.29,2.24,0.65,5.03,0.82,6.2l0.29,2.12l-0.32,0.27c-0.18,0.15-0.36,0.21-0.42,0.15 c-0.06-0.06-0.18-0.67-0.27-1.33c-0.09-0.67-0.65-4.55-1.25-8.61l-1.07-7.4l0.35-1.03c0.18-0.56,0.38-1.01,0.42-1.01 C9.65,40.44,9.88,41.92,10.12,43.72L10.12,43.72L10.12,43.72z M93.08,41.74c0.21,0.21,0.24,1.15,0.24,8.08v7.84H92.9 c-0.92,0-0.91,0.23-0.97-8.36l-0.05-7.81h0.48C92.63,41.5,92.96,41.6,93.08,41.74L93.08,41.74z M60,44.44 c3.41,0.51,6.39,1.47,9.34,2.98c1.9,0.98,2.81,1.66,4.93,3.69c3.14,3.01,5.08,5.64,6.89,9.35c2.64,5.41,3.67,10.2,4.97,23.04 c0.59,5.76,1.36,16.2,1.53,20.48c0.05,1.24,0.15,3.28,0.24,4.53c0.17,2.66,0.36,2.3-1.98,3.43c-3.25,1.57-6.38,2.66-10.5,3.67 c-5.05,1.24-8.31,1.63-13.3,1.65l-3.63,0.01l0.03-1.74c0-0.95,0.09-3.17,0.18-4.91c0.45-8.42,0.36-19.04-0.23-24.93 c-0.33-3.38-0.98-7.49-1.35-8.4c-0.08-0.2,0.27-0.36,1.77-0.88c2.74-0.95,5.11-2.15,5.47-2.73c0.65-1.12-0.51-2.72-1.99-2.72 c-0.26,0-1.03,0.27-1.74,0.59c-3.39,1.56-10.17,3.39-14.08,3.79c-2.7,0.29-6.91,0.12-9.82-0.41c-1.59-0.29-4.43-1.36-6.8-2.58 c-2.73-1.42-4.41-3.31-4.91-5.55c-0.27-1.21-0.2-3.63,0.15-4.99c0.38-1.5,1.44-3.67,2.4-4.94c4.31-5.67,13.19-10.58,22.3-12.3 C52.78,44.03,56.89,43.97,60,44.44L60,44.44L60,44.44z M106.62,44.91c0.54,0.23,0.6,0.29,0.6,0.8c0.03,4.13-0.06,13.55-0.14,13.95 c-0.02,0.14-0.8,0.15-1.13,0.03c-0.21-0.08-0.24-0.89-0.24-7.56c0-4.77,0.06-7.46,0.15-7.46 C105.94,44.67,106.29,44.77,106.62,44.91L106.62,44.91z M113.22,53.21l0.54,0.23l-0.11,12.51c-0.12,15.94-0.14,16.41-0.71,17.79 c-0.94,2.25-0.89,2.7-0.8-7.18c0.03-4.94,0.11-9.94,0.14-11.11c0.03-1.16,0.06-4.44,0.08-7.3c0-3.45,0.05-5.17,0.15-5.17 C112.6,52.98,112.92,53.09,113.22,53.21L113.22,53.21z M22.34,56.97c0.09,1.22,0.06,1.35-0.38,2.31l-0.48,1.03L21.3,58.8 c-0.29-2.42-0.29-2.52,0.29-2.89c0.26-0.18,0.53-0.3,0.57-0.27C22.21,55.67,22.3,56.27,22.34,56.97L22.34,56.97z M13.01,66.08 c0.14,1.24,1.19,9.46,1.74,13.49c0.82,6.24,0.88,7.13,0.51,6.75c-0.05-0.05-0.39-2.15-0.76-4.67c-2.36-16.29-2.34-16.18-2.15-16.3 C12.76,65.08,12.9,65.23,13.01,66.08L13.01,66.08L13.01,66.08z M23.89,73c0.09,0.38,0.53,4.47,0.53,4.97 c0,0.42-0.54,0.82-0.79,0.57c-0.08-0.08-0.27-1.36-0.42-2.84c-0.17-1.5-0.33-3.05-0.38-3.46l-0.09-0.76l0.53,0.6 C23.57,72.43,23.84,72.84,23.89,73L23.89,73L23.89,73z M36.08,78.7c0.17,0.15,0.27,0.76,0.41,2.39c0.23,2.95,0.26,2.72-0.36,2.72 c-0.63,0-0.62,0.05-0.83-2.61c-0.21-2.7-0.21-2.67,0.2-2.67C35.69,78.52,35.94,78.61,36.08,78.7L36.08,78.7z M48.05,78.93 c0.03,0.15,0.11,1.06,0.17,2.01c0.05,0.95,0.18,3.1,0.3,4.76c0.42,6.1,0.44,6.88,0.18,6.88c-0.29,0-0.32-0.23-0.65-4.53 c-0.12-1.78-0.35-4.59-0.5-6.24c-0.14-1.65-0.23-3.02-0.18-3.05C47.54,78.56,47.97,78.7,48.05,78.93L48.05,78.93L48.05,78.93z M19.64,81.83c0.09,0.14,0.67,4.97,1.37,11.57c0.21,1.99,0.42,3.91,0.47,4.28l0.08,0.65l-0.38-0.24c-0.29-0.2-0.39-0.39-0.39-0.74 c0-0.95-0.65-7.22-1.15-11.06c-0.29-2.18-0.51-4.09-0.51-4.28C19.13,81.69,19.49,81.57,19.64,81.83L19.64,81.83z M106.85,88.14 l-0.11,6.32l-0.38,0.56c-0.86,1.27-0.82,1.51-0.77-5.56l0.03-6.48l0.56-0.57c0.3-0.3,0.6-0.56,0.67-0.56 C106.89,81.84,106.89,84.68,106.85,88.14L106.85,88.14L106.85,88.14z M92.87,98.16c0.08,8.78,0.06,9.46-0.18,9.73 c-0.15,0.17-0.29,0.27-0.33,0.23c-0.11-0.12-0.26-19.27-0.14-19.37c0.06-0.06,0.21-0.09,0.35-0.08 C92.76,88.72,92.81,89.79,92.87,98.16L92.87,98.16L92.87,98.16z M43.52,92.15c0.11,0.94,0.48,5.42,0.63,7.54 c0.09,1.42,0.09,1.47-0.24,1.57c-0.18,0.06-0.39,0.05-0.45-0.03c-0.11-0.11-0.44-3.46-0.85-8.63l-0.11-1.24h0.47 C43.41,91.36,43.44,91.39,43.52,92.15L43.52,92.15z M31.64,97.44c0.11,0.11,0.18,0.48,0.18,0.86c0,0.39,0.18,2.43,0.38,4.55 c0.57,5.79,0.62,6.57,0.36,6.42c-0.39-0.23-0.74-0.57-0.67-0.67c0.03-0.06-0.03-0.82-0.15-1.68c-0.11-0.88-0.24-2.3-0.3-3.17 c-0.06-0.88-0.2-2.48-0.32-3.55c-0.29-2.64-0.27-2.95,0.06-2.95C31.34,97.25,31.53,97.33,31.64,97.44L31.64,97.44L31.64,97.44z M38.79,107.61c0.05,0.33,0.14,1.57,0.2,2.75c0.11,2.27,0.06,2.43-0.56,1.96c-0.18-0.14-0.3-0.71-0.48-2.43 c-0.32-3.11-0.33-2.99,0.26-2.93C38.63,107,38.7,107.06,38.79,107.61L38.79,107.61L38.79,107.61z"/><path class="st0" d="M33.39,51.68c-1.57,0.68-1.69,2.81-0.21,3.57c1.07,0.54,2.16,0.29,2.72-0.65 C36.96,52.87,35.23,50.88,33.39,51.68L33.39,51.68L33.39,51.68z M43.64,53.13c-1.45,0.89-1.45,3.04,0,3.93 c1.44,0.86,3.29-0.27,3.29-1.99C46.93,53.4,45.03,52.29,43.64,53.13L43.64,53.13z"/></g></svg>