<!--?xml version="1.0" encoding="utf-8"?-->
<!-- Generator: Adobe Illustrator 15.1.0, SVG Export Plug-In . SVG Version: 6.00 Build 0)  -->

<svg version="1.1" id="_x32_" xmlns="http://www.w3.org/2000/svg" xmlns:xlink="http://www.w3.org/1999/xlink" x="0px" y="0px" width="512px" height="512px" viewBox="0 0 512 512" style="width: 256px; height: 256px; opacity: 1;" xml:space="preserve">
<style type="text/css">

	.st0{fill:#4B4B4B;}

</style>
<g>
	<path class="st0" d="M232.406,152.984c7.219-0.047,13.109-6.734,13.156-14.953c0.078-8.188-5.75-14.797-12.953-14.75
		s-13.094,6.75-13.172,14.938C219.391,146.438,225.188,153.047,232.406,152.984z" style="fill: rgb(75, 75, 75);"></path>
	<path class="st0" d="M279.531,144.922c6.797-2.359,10.078-10.516,7.281-18.25c-2.781-7.703-10.563-12.063-17.406-9.703
		c-6.781,2.344-10.063,10.5-7.281,18.219S272.688,147.25,279.531,144.922z" style="fill: rgb(75, 75, 75);"></path>
	<polygon class="st0" points="267.125,154.813 255.219,144.688 247.375,158.188 257.25,156.5 	" style="fill: rgb(75, 75, 75);"></polygon>
	<path class="st0" d="M470.938,249.688l-2.969-12.797l-43.531-4.828l36.313-26.219L433.672,89.313
		c-24.516,12.828-49.578,16.625-49.578,16.625L411.813,55.5c0,0-30.25-2.516-22.688-7.563c4-2.688,15.094-24.469,24.625-44.359
		L412.922,0c0,0-99.453,63.063-180.547,53.906c-17.719-2.016-33.844-2.844-48.781-2.734l-39.125,34.594l3.25-32.438
		C104.313,58.344,72.25,71.406,41.063,83.547L140.484,512l29.484-6.844l-42.406-182.781c17.156-6.25,35.406-12.016,56.281-16.016
		l16.125-18.828l13.063,14.703c22.359-2.063,47.672-2.016,77.375,1.359c22.234,2.516,45.844-0.422,68.422-5.984L343.719,282.5
		l34.141,9.75C429.25,276.094,470.938,249.688,470.938,249.688z M205.078,123.063c1.453-20.313,13.516-33.625,39.906-38.125
		c26.375-4.516,42.203,3.969,50.328,22.656c8.125,18.703,11.109,28.594,9.25,36.813c-2.594,11.344-14.656,18.781-22.031,22.359
		l1.531,8.906c0.281,1.609-0.875,3.172-2.547,3.453l-7.422,1.266c-1.703,0.297-3.281-0.797-3.563-2.391l-1.281-7.469l-2.547,0.438
		l1.281,7.469c0.281,1.594-0.859,3.141-2.547,3.438L258,183.156c-1.688,0.281-3.281-0.797-3.563-2.391l-1.281-7.484l-2.547,0.453
		l1.297,7.453c0.25,1.594-0.875,3.156-2.563,3.438l-7.438,1.281c-1.672,0.281-3.266-0.797-3.531-2.391l-1.531-8.922
		c-8.156-0.922-22-3.922-28.219-13.75C204.094,153.719,203.625,143.375,205.078,123.063z M337.375,216.172
		c-1.031,3.516-3.719,6.172-7.016,7.391c2.203,2.609,3.109,6.172,2.109,9.688c-1.688,5.828-7.922,9.297-13.969,7.797
		c-6.063-1.547-9.594-7.484-7.922-13.297c0.031-0.172,0.094-0.313,0.172-0.469c-0.594-0.656-1.344-1.219-2.422-1.625
		c-2.328-0.906-22.453-5.938-42.469-10.891c-15.703,10.719-30.734,20.984-31.984,21.828c-1.344,0.922-3.953,3.172-2.656,6.25
		c2.906,4.797,1.5,11.031-3.375,14.344c-5.125,3.531-12.188,2.406-15.781-2.469c-2.172-2.969-2.563-6.625-1.406-9.813
		c-3.5-0.016-6.969-1.563-9.125-4.5c-3.594-4.922-2.328-11.703,2.813-15.234c5.156-3.516,12.234-2.406,15.797,2.484
		c0.109,0.141,0.203,0.281,0.281,0.406c0.875,0,1.844-0.219,2.875-0.734c1.734-0.891,12.484-8.188,25.141-16.859
		c-12.25-3-22.109-5.406-24.109-5.906c-3.859-0.984-9.969-2.109-12.266,0.875c-2.438,4.453-7.828,6.891-13.063,5.578
		c-6.031-1.531-9.594-7.469-7.906-13.297c1-3.516,3.688-6.172,7.016-7.391c-2.219-2.594-3.125-6.156-2.109-9.672
		c1.672-5.844,7.922-9.313,13.969-7.797c5.375,1.344,8.781,6.203,8.25,11.391c0.719,4.484,4.609,5.875,10.469,7.359
		c2.594,0.641,17.969,4.484,34.563,8.672c15.109-10.406,29.25-20.219,31.531-21.781c3.297-2.25,8.156-6.047,7.281-9.625
		c-2.016-4.594-0.469-10.063,3.969-13.125c5.156-3.516,12.219-2.406,15.813,2.484c2.188,2.969,2.563,6.609,1.406,9.828
		c3.5-0.016,6.969,1.563,9.125,4.5c3.594,4.906,2.328,11.703-2.813,15.188c-4.563,3.156-10.719,2.594-14.516-1.016
		c-4.078-2.313-7.703-0.297-12.688,3.109c-1.797,1.234-10.813,7.375-21.703,14.813c14.781,3.719,27.281,6.859,28.469,7.156
		c1.609,0.406,5.047,0.875,6.688-2.094c2.047-5.25,7.938-8.281,13.625-6.844C335.5,204.391,339.031,210.344,337.375,216.172z" style="fill: rgb(75, 75, 75);"></path>
</g>
</svg>
