<?xml version="1.0" encoding="iso-8859-1"?>
<!-- Generator: Adobe Illustrator 18.1.1, SVG Export Plug-In . SVG Version: 6.00 Build 0)  -->
<svg version="1.1" id="Capa_1" xmlns="http://www.w3.org/2000/svg" xmlns:xlink="http://www.w3.org/1999/xlink" x="0px" y="0px"
	 viewBox="0 0 22.105 22.105" style="enable-background:new 0 0 22.105 22.105;" xml:space="preserve">
<g>
	<path d="M5.535,6.02c0.076,0,0.137-0.062,0.137-0.137V0.236c0-0.075-0.061-0.136-0.137-0.136H0.139C0.062,0.1,0,0.161,0,0.236
		v5.647C0,5.958,0.062,6.02,0.139,6.02H5.535z"/>
	<path d="M13.75,6.02c0.076,0,0.137-0.062,0.137-0.137V0.236c0-0.075-0.061-0.136-0.137-0.136H8.355
		c-0.078,0-0.138,0.061-0.138,0.136v5.647c0,0.075,0.061,0.137,0.139,0.137H13.75z"/>
	<path d="M21.967,16.084H16.57c-0.078,0-0.137,0.062-0.137,0.138v5.646c0,0.077,0.059,0.137,0.137,0.137h5.396
		c0.074,0,0.139-0.06,0.139-0.137v-5.646C22.105,16.147,22.041,16.084,21.967,16.084z"/>
	<path d="M13.805,13.983c0.076,0,0.139-0.062,0.139-0.137V8.2c0-0.077-0.062-0.138-0.139-0.138H8.408
		C8.332,8.062,8.27,8.123,8.27,8.2v5.646c0,0.075,0.062,0.137,0.139,0.137H13.805z"/>
	<path d="M13.861,16.084H8.463c-0.076,0-0.139,0.062-0.139,0.138v5.646c0,0.077,0.062,0.137,0.139,0.137h5.398
		c0.072,0,0.135-0.06,0.135-0.137v-5.646C13.996,16.147,13.934,16.084,13.861,16.084z"/>
	<path d="M5.643,16.084H0.244c-0.076,0-0.135,0.062-0.135,0.138v5.646c0,0.077,0.059,0.137,0.135,0.137h5.398
		c0.074,0,0.137-0.06,0.137-0.137v-5.646C5.779,16.147,5.717,16.084,5.643,16.084z"/>
	<path d="M21.914,13.983c0.074,0,0.137-0.062,0.137-0.137V8.2c0-0.077-0.062-0.138-0.137-0.138h-5.398
		c-0.074,0-0.135,0.061-0.135,0.138v5.646c0,0.075,0.061,0.137,0.135,0.137H21.914z"/>
	<path d="M21.857,6.02c0.078,0,0.139-0.062,0.139-0.137V0.236c0-0.075-0.06-0.136-0.139-0.136h-5.395
		c-0.076,0-0.139,0.061-0.139,0.136v5.647c0,0.075,0.062,0.137,0.139,0.137H21.857z"/>
	<path d="M5.588,13.983c0.078,0,0.137-0.062,0.137-0.137V8.2c0-0.077-0.059-0.138-0.137-0.138H0.193
		c-0.078,0-0.137,0.061-0.137,0.138v5.646c0,0.075,0.059,0.137,0.137,0.137H5.588z"/>
	<g>
	</g>
	<g>
	</g>
	<g>
	</g>
	<g>
	</g>
	<g>
	</g>
	<g>
	</g>
	<g>
	</g>
	<g>
	</g>
	<g>
	</g>
	<g>
	</g>
	<g>
	</g>
	<g>
	</g>
	<g>
	</g>
	<g>
	</g>
	<g>
	</g>
</g>
<g>
</g>
<g>
</g>
<g>
</g>
<g>
</g>
<g>
</g>
<g>
</g>
<g>
</g>
<g>
</g>
<g>
</g>
<g>
</g>
<g>
</g>
<g>
</g>
<g>
</g>
<g>
</g>
<g>
</g>
</svg>
