<!--?xml version="1.0" encoding="utf-8"?-->
<!-- Generator: Adobe Illustrator 15.1.0, SVG Export Plug-In . SVG Version: 6.00 Build 0)  -->

<svg version="1.1" id="_x32_" xmlns="http://www.w3.org/2000/svg" xmlns:xlink="http://www.w3.org/1999/xlink" x="0px" y="0px" width="512px" height="512px" viewBox="0 0 512 512" style="width: 256px; height: 256px; opacity: 1;" xml:space="preserve">
<style type="text/css">

	.st0{fill:#4B4B4B;}

</style>
<g>
	<path class="st0" d="M61.938,345.188h388.125c14.813,0,26.828-12.016,26.828-26.828V89.969c0-14.797-12.016-26.813-26.828-26.813
		H61.938c-14.813,0-26.813,12.016-26.813,26.813v228.391C35.125,333.172,47.125,345.188,61.938,345.188z M76.125,99.188h359.75
		v203.656H76.125V99.188z" style="fill: rgb(75, 75, 75);"></path>
	<path class="st0" d="M508.031,419.609l-47.844-42.469c-3.078-2.719-7.5-4.266-12.172-4.266H63.984
		c-4.672,0-9.094,1.547-12.172,4.266L3.969,419.609C1.406,421.875,0,424.797,0,427.813v14.797c0,3.453,3.609,6.234,8.063,6.234
		h495.875c4.469,0,8.063-2.781,8.063-6.234v-14.797C512,424.797,510.594,421.875,508.031,419.609z M201.141,424.625l13.844-18.719
		h87.734l13.828,18.719H201.141z" style="fill: rgb(75, 75, 75);"></path>
</g>
</svg>
