<!--?xml version="1.0" encoding="utf-8"?-->
<!-- Generator: Adobe Illustrator 18.1.1, SVG Export Plug-In . SVG Version: 6.00 Build 0)  -->

<svg version="1.1" id="_x32_" xmlns="http://www.w3.org/2000/svg" xmlns:xlink="http://www.w3.org/1999/xlink" x="0px" y="0px" viewBox="0 0 512 512" style="width: 256px; height: 256px; opacity: 1;" xml:space="preserve">
<style type="text/css">
	.st0{fill:#4B4B4B;}
</style>
<g>
	<polygon class="st0" points="316.087,88.253 325.479,0 186.527,0 195.917,88.253 	" style="fill: rgb(75, 75, 75);"></polygon>
	<rect x="241.209" y="400.573" class="st0" width="11.49" height="15.332" style="fill: rgb(75, 75, 75);"></rect>
	<path class="st0" d="M226.198,312.311c-10.578,0-19.157,8.583-19.157,19.151c0,10.586,8.579,19.17,19.157,19.17
		c10.581,0,19.16-8.583,19.16-19.17C245.358,320.894,236.779,312.311,226.198,312.311z" style="fill: rgb(75, 75, 75);"></path>
	<rect x="241.209" y="380.571" class="st0" width="11.49" height="15.323" style="fill: rgb(75, 75, 75);"></rect>
	<path class="st0" d="M266.537,362.555l-10.539-16.459l-10.536,16.459c-3.294,5.268,7.902,11.848,10.536,0.656
		C258.636,374.402,269.828,367.823,266.537,362.555z" style="fill: rgb(75, 75, 75);"></path>
	<path class="st0" d="M223.109,411.066c0,2.676,2.163,4.839,4.83,4.839h6.669v-15.332h-11.499V411.066z" style="fill: rgb(75, 75, 75);"></path>
	<path class="st0" d="M223.109,385.401v10.493h11.499v-15.323h-6.669C225.272,380.571,223.109,382.733,223.109,385.401z" style="fill: rgb(75, 75, 75);"></path>
	<path class="st0" d="M285.803,312.311c-10.582,0-19.161,8.583-19.161,19.151c0,10.586,8.579,19.17,19.161,19.17
		c10.577,0,19.151-8.583,19.151-19.17C304.955,320.894,296.38,312.311,285.803,312.311z" style="fill: rgb(75, 75, 75);"></path>
	<path class="st0" d="M284.061,380.571h-6.668v15.323h11.49v-10.493C288.883,382.733,286.729,380.571,284.061,380.571z" style="fill: rgb(75, 75, 75);"></path>
	<rect x="259.297" y="400.573" class="st0" width="11.495" height="15.332" style="fill: rgb(75, 75, 75);"></rect>
	<rect x="259.297" y="380.571" class="st0" width="11.495" height="15.323" style="fill: rgb(75, 75, 75);"></rect>
	<path class="st0" d="M345.186,190.921c0-26.296,37.567-30.049,37.567-41.316s0-32.43,0-32.43c0-4.906-3.972-8.886-8.877-8.886
		h-62.484l-110.783,0.016h-62.484c-4.894,0-8.865,3.964-8.865,8.869c0,0,0,21.163,0,32.43s37.555,15.028,37.555,41.316
		c0,26.279-52.58,30.04-52.58,90.121c0,28.172,0,146.466,0,180.26c0,33.802,15.025,50.698,54.456,50.698h174.626
		c39.435,0,54.447-16.905,54.447-50.698c0-33.794,0-152.087,0-180.26C397.765,220.953,345.186,217.2,345.186,190.921z
		 M330.931,364.818c0,8.516-13.632,27.248-27.247,18.732c0,0,0,19.168,0,24.268c0,5.108-10.216,25.546-47.686,25.546
		c-37.462,0-47.682-20.438-47.682-25.546c0-5.1,0-24.268,0-24.268c-13.615,8.516-27.242-10.216-27.242-18.732
		c0-8.515,0-15.34,0-44.278c0-28.955,22.134-74.933,74.924-74.933c52.786,0,74.933,45.978,74.933,74.933
		C330.931,349.479,330.931,356.303,330.931,364.818z" style="fill: rgb(75, 75, 75);"></path>
	<path class="st0" d="M277.393,415.905h6.668c2.668,0,4.822-2.163,4.822-4.839v-10.492h-11.49V415.905z" style="fill: rgb(75, 75, 75);"></path>
</g>
</svg>
